<?xml version="1.0" encoding="utf-8"?>
<!-- Generator: Adobe Illustrator 16.0.0, SVG Export Plug-In . SVG Version: 6.00 Build 0)  -->
<!DOCTYPE svg PUBLIC "-//W3C//DTD SVG 1.1//EN" "http://www.w3.org/Graphics/SVG/1.1/DTD/svg11.dtd">
<svg version="1.1" id="Layer_1" xmlns="http://www.w3.org/2000/svg" xmlns:xlink="http://www.w3.org/1999/xlink" x="0px" y="0px"
	 width="1836px" height="1000px" viewBox="0 0 1836 1000" enable-background="new 0 0 1836 1000" xml:space="preserve">
<g>
	<g>
		<g>
			<path fill-rule="evenodd" clip-rule="evenodd" fill="#108FCD" d="M1015.559,493.162c-0.045,51.376-41.725,93.001-93.104,92.973
				c-51.449-0.026-93.061-41.739-92.995-93.22c0.068-51.378,41.762-92.938,93.169-92.864
				C974.037,400.125,1015.602,441.772,1015.559,493.162z M998.118,493.033c-0.123-41.843-34.016-75.644-75.753-75.551
				c-41.771,0.09-75.619,34.088-75.479,75.816c0.144,41.694,34.195,75.596,75.742,75.396
				C964.435,568.492,998.239,534.617,998.118,493.033z"/>
			<path fill-rule="evenodd" clip-rule="evenodd" fill="#108FCD" d="M1015.207,568.336c4.656,0.038,8.771,1.57,12.063,4.852
				c21.282,21.224,42.544,42.467,63.758,63.765c5.039,5.059,6.246,12.7,3.337,19.164c-2.923,6.501-9.423,10.615-16.503,10.34
				c-4.767-0.189-8.781-2.097-12.148-5.478c-13.659-13.685-27.344-27.345-41.017-41.021c-7.298-7.305-14.659-14.563-21.898-21.938
				c-8.011-8.153-6.259-21.392,3.521-27.247C1009.046,569.135,1012.018,568.325,1015.207,568.336z"/>
			<path fill-rule="evenodd" clip-rule="evenodd" fill="#108FCD" d="M1000.344,552.883c3.928,3.968,7.771,7.843,11.644,11.757
				c-4.812,0.074-9.2,1.631-12.74,5.194c-3.507,3.532-5.144,7.833-5.144,12.375c-3.713-3.714-7.579-7.579-11.52-11.517
				C989.087,565.755,995.17,559.642,1000.344,552.883z"/>
		</g>
		<path fill-rule="evenodd" clip-rule="evenodd" fill="#1B1854" d="M914.266,431.206c-22.045,11.658-36.052,29.253-40.076,53.877
			c-4.018,24.606,3.483,45.801,20.597,63.743c-6.856-1.377-20.748-14.35-26.777-25.102c-6.29-11.217-8.916-23.282-7.788-36.082
			C862.988,456.191,887.93,434.287,914.266,431.206z"/>
	</g>
	<path fill="#108FCD" d="M922.639,392.705c9.753,0.014,19.182,1.432,28.103,4.051v-36.248H779.607v37.212h111.557
		c9.863-3.25,20.395-5.015,31.328-5.015H922.639z"/>
	<rect x="968.024" y="360.508" fill="#108FCD" width="82.276" height="37.212"/>
	<path fill="#108FCD" d="M1016.648,458.215h33.653v-37.212h-58.01C1002.975,431.345,1011.373,444.028,1016.648,458.215z"/>
	<path fill="#108FCD" d="M852.714,421.003h-73.105v37.212h48.748C833.631,444.026,842.03,431.345,852.714,421.003z"/>
	<path fill="#108FCD" d="M1018.328,523.031h31.974v-37.212h-27.661c0.174,2.428,0.267,4.877,0.265,7.349
		C1022.896,503.565,1021.287,513.595,1018.328,523.031z"/>
	<path fill="#108FCD" d="M822.378,485.819h-42.77v37.212h47.035c-2.992-9.624-4.542-19.754-4.529-30.126
		C822.118,490.522,822.21,488.161,822.378,485.819z"/>
	<path fill="#108FCD" d="M837.345,546.315h-57.737v37.212H878.8c-10.023-4.853-19.267-11.404-27.361-19.519
		C846.027,558.586,841.317,552.65,837.345,546.315z"/>
	<path fill="#108FCD" d="M1018.989,561.278c5.193,0.762,9.79,3.043,13.465,6.705c5.402,5.387,10.576,10.551,15.579,15.544h2.268
		v-37.212h-42.732c-0.438,0.698-0.873,1.396-1.328,2.084L1018.989,561.278z"/>
	<path fill="#108FCD" d="M968.024,582.534v0.993h17.004l-6.909-6.906C974.885,578.784,971.511,580.753,968.024,582.534z"/>
	<path fill="#1B1854" d="M724.162,306.162v387.677h387.677V306.162H724.162z M918,677.366c-12.888,0-23.336-10.448-23.336-23.336
		c0-12.89,10.448-23.337,23.336-23.337s23.335,10.447,23.335,23.337C941.335,666.918,930.888,677.366,918,677.366z
		 M1101.063,659.131c-4.009,8.92-12.854,14.683-22.534,14.683c-0.316,0-0.634-0.004-0.953-0.018
		c-6.539-0.258-12.279-2.825-17.067-7.633c-9.068-9.087-18.153-18.167-27.238-27.246l-13.769-13.765
		c-1.611-1.614-3.226-3.222-4.84-4.829H754.315V336.315h327.369v280.862c4.98,4.99,9.816,9.84,14.548,14.588
		C1103.296,638.861,1105.236,649.857,1101.063,659.131z"/>
</g>
</svg>
